<?xml version="1.0" encoding="UTF-8"?>
<svg xmlns="http://www.w3.org/2000/svg" height="1000" width="937.5"><path d="M0 491.016q0 -33.184 23.668 -56.608t56.852 -23.424h344.04l-110.776 -110.776q-23.424 -23.424 -23.424 -56.608t23.424 -57.096q23.912 -23.424 57.34 -23.424t56.852 23.424l246.928 247.904q23.912 23.424 23.912 56.608t-23.912 56.608l-242.048 242.536q-23.424 23.424 -56.852 23.424t-56.852 -23.424 -23.424 -56.608 23.424 -57.096l105.408 -104.92h-344.04q-33.184 0 -56.852 -23.668t-23.668 -56.852zm581.696 397.232q0 -33.184 23.668 -56.852t56.852 -23.668h71.736q17.568 0 30.012 -12.2t12.444 -29.768v-531.92q0 -17.08 -12.444 -29.28t-30.012 -12.2h-71.736q-33.184 0 -56.852 -23.668t-23.668 -56.852 23.668 -56.608 56.852 -23.424h71.736q84.424 0 143.716 59.048t59.292 142.984v531.92q0 84.424 -59.536 143.716t-143.472 59.292h-71.736q-33.184 0 -56.852 -23.668t-23.668 -56.852z" fill="#000000"/></svg>
