<?xml version="1.0" encoding="UTF-8"?>
<svg xmlns="http://www.w3.org/2000/svg" height="1000" width="937.5"><path d="M0 765.76q0 83.936 59.292 143.472t143.228 59.536h72.224q33.184 0 56.852 -23.668t23.668 -56.852 -23.668 -56.852 -56.852 -23.668h-72.224q-17.08 0 -29.524 -12.2t-12.444 -29.768v-531.92q0 -17.08 12.444 -29.28t29.524 -12.2h72.224q33.184 0 56.852 -23.668t23.668 -56.852 -23.668 -56.608 -56.852 -23.424h-72.224q-83.936 0 -143.228 59.048t-59.292 142.984v531.92zm238.144 -251.808q0 -33.184 23.668 -56.608t56.852 -23.424h344.04l-109.8 -110.776q-23.912 -23.424 -23.912 -56.852t23.912 -56.852q23.424 -23.424 56.608 -23.424t56.608 23.424l247.416 247.904q23.424 23.424 23.424 56.608t-23.424 56.608l-242.536 242.536q-23.424 23.424 -56.608 23.424t-57.096 -23.424q-23.424 -23.424 -23.424 -56.608t23.912 -57.096l104.92 -104.92h-344.04q-32.696 0 -56.608 -23.912t-23.912 -56.608z" fill="#000000"/></svg>
