<?xml version="1.0" encoding="UTF-8"?>
<!-- Generator: Adobe Illustrator 17.1.0, SVG Export Plug-In . SVG Version: 6.00 Build 0)  -->
<!DOCTYPE svg PUBLIC "-//W3C//DTD SVG 1.1//EN" "http://www.w3.org/Graphics/SVG/1.1/DTD/svg11.dtd">
<svg version="1.1" id="Layer_1" xmlns="http://www.w3.org/2000/svg" xmlns:xlink="http://www.w3.org/1999/xlink" x="0px" y="0px" viewBox="0 0 96 96" enable-background="new 0 0 96 96" xml:space="preserve">
<path d="M72,52.4v-8.8l-5.4-0.9c-0.4-1.5-1-2.9-1.7-4.1l3.2-4.4l-6.2-6.3L57.4,31c-1.3-0.7-2.7-1.3-4.1-1.7L52.4,24h-8.8l-0.9,5.4  c-1.5,0.4-2.8,1-4.1,1.7L34.2,28l-6.3,6.2l3.2,4.4c-0.7,1.3-1.3,2.7-1.7,4.2L24,43.6v8.8l5.4,0.9c0.4,1.5,1,2.8,1.7,4.1l-3.2,4.5  l6.2,6.2l4.5-3.2c1.3,0.7,2.7,1.3,4.2,1.7l0.9,5.3h8.8l0.9-5.4c1.4-0.4,2.8-1,4.1-1.7l4.5,3.2l6.2-6.2l-3.2-4.5  c0.7-1.3,1.3-2.6,1.7-4.1L72,52.4z M48,57.2c-5.1,0-9.2-4.1-9.2-9.2c0-5.1,4.2-9.2,9.2-9.2s9.2,4.1,9.2,9.2S53.1,57.2,48,57.2z"/>
</svg>